:SAMPLES-PER-SECOND 30
:FULLY-SPECIFIED
:DEGREES
101
root  48.0345 39.3123 2.47121 -176.008 85.3815 -171.777
RightUpLeg  -19.1123 -0.649868 0.470997
RightLeg  42.1826 5.95563 -4.06558
RightFoot  2.84613 -0.369567 2.65729
RightToes  -7.56701e-010 -1.59028e-015 9.93923e-017
Spine  8.68737 -3.65826 -10.8546
Spine1  5.86075 -6.94778 7.52469
HEad  -23.7767 2.129 2.67886
LeftShoulder1  9.93923e-017 0 1.22299e-017
LeftArm  6.72545 15.4856 -76.0621
LeftForeArm  -33.4885 -47.6777 29.2863
LeftHand  1.38411 9.91245 -0.52422
RightShoulder  1.98785e-016 -4.96962e-017 1.55301e-017
RightArm  37.3077 -61.2738 69.6656
RightForeArm  -37.4216 18.68 -6.56061
RightHand  1.51237 -13.567 -4.0146
LeftUpLeg  1.80561 0.365869 -3.90036
LeftLeg  15.4299 -15.3415 0.180289
LeftFoot  -9.926 -0.0904871 2.0292
LeftToes  1.17689e-009 -8.96121e-011 5.75302e-011
102
root  49.6498 39.2139 2.52062 -179.071 84.4256 -174.746
RightUpLeg  -20.7165 -0.47861 0.660128
RightLeg  33.618 7.06739 -2.03437
RightFoot  2.46938 -0.280038 2.06341
RightToes  -7.56701e-010 -1.59028e-015 9.93923e-017
Spine  9.10823 -4.26796 -12.8555
Spine1  5.55734 -8.02882 9.85409
HEad  -23.9215 3.28626 2.79638
LeftShoulder1  9.93923e-017 0 1.22299e-017
LeftArm  5.21583 11.2746 -74.2245
LeftForeArm  -35.1192 -52.1933 32.9369
LeftHand  1.44386 10.229 0.0538126
RightShoulder  1.98785e-016 -4.96962e-017 1.55301e-017
RightArm  40.4407 -64.5424 63.1021
RightForeArm  -37.5501 18.6836 -6.83929
RightHand  1.57818 -13.6374 -4.88402
LeftUpLeg  4.99104 1.20502 -3.0937
LeftLeg  14.7569 -17.2687 -0.369145
LeftFoot  -11.3251 -0.0747077 2.31139
LeftToes  1.17689e-009 -8.96121e-011 5.75302e-011
103
root  51.2913 39.1212 2.52875 -179.115 84.4279 -174.974
RightUpLeg  -21.2203 0.0155941 1.17725
RightLeg  22.148 10.1602 0.395295
RightFoot  3.74183 -0.380417 2.56384
RightToes  -7.56701e-010 -1.59028e-015 9.93923e-017
Spine  8.85353 -4.67626 -13.5051
Spine1  5.64519 -8.51351 10.9708
HEad  -23.7062 4.29152 3.01768
LeftShoulder1  9.93923e-017 0 1.22299e-017
LeftArm  3.85467 7.91098 -72.4672
LeftForeArm  -37.4205 -55.2663 35.8696
LeftHand  1.50572 10.4762 0.936828
RightShoulder  1.98785e-016 -4.96962e-017 1.55301e-017
RightArm  39.9417 -66.4498 57.4066
RightForeArm  -33.0326 17.8723 -4.96145
RightHand  1.66453 -13.8706 -5.68617
LeftUpLeg  8.37812 2.02969 -2.0662
LeftLeg  13.1759 -18.391 -0.888693
LeftFoot  -12.2582 -0.0617383 2.53697
LeftToes  1.17689e-009 -8.96121e-011 5.75302e-011
104
root  52.9716 39.046 2.51553 -175.932 84.7073 -172.045
RightUpLeg  -20.4212 1.39143 1.77922
RightLeg  8.56276 11.3007 1.30453
RightFoot  4.39544 -0.617353 4.04388
RightToes  -7.56701e-010 -1.59028e-015 9.93923e-017
Spine  8.40177 -4.98991 -13.1422
Spine1  6.00088 -8.77667 11.5259
HEad  -23.4108 4.9216 3.27325
LeftShoulder1  9.93923e-017 0 1.22299e-017
LeftArm  2.67235 5.7424 -71.1588
LeftForeArm  -38.9627 -57.175 37.9895
LeftHand  1.53137 10.4112 2.14634
RightShoulder  1.98785e-016 -4.96962e-017 1.55301e-017
RightArm  35.7647 -67.2738 53.2006
RightForeArm  -26.1001 16.1661 -1.82787
RightHand  1.74315 -14.1968 -6.1311
LeftUpLeg  11.7772 2.65144 -0.769856
LeftLeg  11.1016 -19.2406 -1.26559
LeftFoot  -12.1988 -0.0540313 1.78041
LeftToes  1.17689e-009 -8.96121e-011 5.75302e-011
105
root  54.7375 38.8678 2.53659 -174.603 84.5987 -170.92
RightUpLeg  -19.3555 4.34318 1.57276
RightLeg  -2.17039 6.12273 1.62648
RightFoot  2.77429 -0.584973 4.14912
RightToes  -7.56701e-010 -1.59028e-015 9.93923e-017
Spine  7.86016 -5.29101 -13.0448
Spine1  6.60231 -9.17766 12.2319
HEad  -23.3186 5.1651 3.31703
LeftShoulder1  9.93923e-017 0 1.22299e-017
LeftArm  1.67721 4.90309 -70.5826
LeftForeArm  -39.0599 -57.9937 39.0516
LeftHand  1.50834 10.0136 3.73339
RightShoulder  1.98785e-016 -4.96962e-017 1.55301e-017
RightArm  28.3874 -67.229 51.1456
RightForeArm  -18.9361 13.7034 1.33706
RightHand  1.74329 -14.4171 -5.67818
LeftUpLeg  14.6468 2.9461 0.280181
LeftLeg  10.3786 -20.3726 -1.39362
LeftFoot  -11.6449 -0.0418673 0.496971
LeftToes  1.17689e-009 -8.96121e-011 5.75302e-011
106
root  56.5799 38.6356 2.58461 -174.173 84.1158 -170.827
RightUpLeg  -19.761 4.95266 2.38688
RightLeg  -4.48553 0.190582 1.51055
RightFoot  0.74701 -0.168649 1.42951
RightToes  -7.56701e-010 -1.59028e-015 9.93923e-017
Spine  7.09633 -5.62923 -12.886
Spine1  7.42109 -9.70618 13.0855
HEad  -23.346 5.13825 3.00067
LeftShoulder1  9.93923e-017 0 1.22299e-017
LeftArm  0.97437 5.55085 -70.8618
LeftForeArm  -38.0742 -57.6881 38.7491
LeftHand  1.46448 9.55544 5.37137
RightShoulder  1.98785e-016 -4.96962e-017 1.55301e-017
RightArm  20.5689 -66.8104 51.4999
RightForeArm  -14.0225 11.6172 3.14775
RightHand  1.67889 -14.4554 -4.7113
LeftUpLeg  16.9058 2.45938 1.09058
LeftLeg  10.9077 -21.132 -1.43349
LeftFoot  -10.6094 -0.0172456 -0.605176
LeftToes  1.17689e-009 -8.96121e-011 5.75302e-011
107
root  58.4993 38.4015 2.61911 -170.215 83.4041 -167.269
RightUpLeg  -21.2042 5.48183 3.51725
RightLeg  0.366785 -4.70749 0.238022
RightFoot  2.09073 0.226776 -1.66154
RightToes  -7.56701e-010 -1.59028e-015 9.93923e-017
Spine  6.4254 -5.96348 -11.436
Spine1  8.02003 -10.0642 13.3518
HEad  -23.2726 4.85699 2.40756
LeftShoulder1  9.93923e-017 0 1.22299e-017
LeftArm  0.850817 7.75243 -72.087
LeftForeArm  -36.7425 -56.1763 36.9864
LeftHand  1.43388 9.28606 6.42458
RightShoulder  1.98785e-016 -4.96962e-017 1.55301e-017
RightArm  14.6915 -66.4137 54.149
RightForeArm  -12.4615 10.9977 3.37395
RightHand  1.64858 -14.4344 -4.3335
LeftUpLeg  18.3311 0.496004 2.14709
LeftLeg  12.8234 -20.612 -2.20768
LeftFoot  -8.72557 0.0751716 -2.47619
LeftToes  1.17689e-009 -8.96121e-011 5.75302e-011
108
root  60.5057 38.0613 2.63661 -164.17 82.217 -161.085
RightUpLeg  -22.6118 5.3097 5.01547
RightLeg  8.59388 -5.47584 -2.00072
RightFoot  5.57862 0.476581 -2.90007
RightToes  -7.56701e-010 -1.59028e-015 9.93923e-017
Spine  6.42681 -6.23699 -8.57141
Spine1  7.92098 -9.99849 12.7713
HEad  -23.1321 4.17417 1.82079
LeftShoulder1  9.93923e-017 0 1.22299e-017
LeftArm  1.59 11.0184 -74.4085
LeftForeArm  -34.8186 -52.8877 33.6003
LeftHand  1.396 9.08814 6.54013
RightShoulder  1.98785e-016 -4.96962e-017 1.55301e-017
RightArm  9.45919 -65.6199 59.1256
RightForeArm  -12.5271 11.2171 2.99761
RightHand  1.66769 -14.3914 -4.67985
LeftUpLeg  18.2385 -2.13995 4.11301
LeftLeg  18.4715 -19.9665 -4.35959
LeftFoot  -4.78932 0.450626 -5.95269
LeftToes  1.17689e-009 -8.96121e-011 5.75302e-011
109
root  62.3852 37.7011 2.65754 -156.403 80.5062 -152.6
RightUpLeg  -23.1323 3.2873 7.58153
RightLeg  16.0232 -2.73713 -3.46177
RightFoot  6.418 0.616358 -3.59334
RightToes  -7.56701e-010 -1.59028e-015 9.93923e-017
Spine  7.31003 -6.35626 -4.70414
Spine1  7.6379 -9.57016 12.1808
HEad  -22.9603 2.97142 1.53543
LeftShoulder1  9.93923e-017 0 1.22299e-017
LeftArm  3.48662 14.3717 -77.7963
LeftForeArm  -32.0361 -46.7576 28.6745
LeftHand  1.3018 8.66067 5.95157
RightShoulder  1.98785e-016 -4.96962e-017 1.55301e-017
RightArm  3.12799 -63.2528 65.7499
RightForeArm  -11.7684 10.9633 3.14336
RightHand  1.64514 -14.2127 -4.70351
LeftUpLeg  15.9373 -2.86811 7.53107
LeftLeg  28.0145 -20.8382 -6.53549
LeftFoot  4.05011 1.4495 -9.32184
LeftToes  1.17689e-009 -8.96121e-011 5.75302e-011
110
root  64.0532 37.4135 2.70289 -149.928 78.8352 -145.299
RightUpLeg  -22.9771 0.423642 10.5144
RightLeg  22.0752 -0.213265 -4.27861
RightFoot  2.74816 0.646156 -4.64668
RightToes  -7.56701e-010 -1.59028e-015 9.93923e-017
Spine  8.33403 -6.19464 -1.13556
Spine1  7.62447 -8.82839 12.2584
HEad  -22.4575 1.36319 1.57664
LeftShoulder1  9.93923e-017 0 1.22299e-017
LeftArm  7.7811 17.2681 -81.7387
LeftForeArm  -31.0439 -37.6407 23.4099
LeftHand  1.16949 8.02272 5.04299
RightShoulder  1.98785e-016 -4.96962e-017 1.55301e-017
RightArm  -1.61811 -58.6149 72.047
RightForeArm  -10.7996 10.3861 3.76128
RightHand  1.56678 -13.9336 -4.11269
LeftUpLeg  11.5939 -4.41961 10.2385
LeftLeg  38.9382 -18.6286 -6.86323
LeftFoot  16.1655 2.83954 -10.5858
LeftToes  1.17689e-009 -8.96121e-011 5.75302e-011
111
root  65.7058 37.331 2.75732 -145.594 77.9908 -140.481
RightUpLeg  -21.4594 -1.3107 12.512
RightLeg  25.5364 0.710336 -4.60088
RightFoot  -1.84441 0.523761 -5.28085
RightToes  -7.56701e-010 -1.59028e-015 9.93923e-017
Spine  8.62162 -5.61667 1.27598
Spine1  7.78394 -7.76965 12.5693
HEad  -21.3576 -0.353531 1.73506
LeftShoulder1  9.93923e-017 0 1.22299e-017
LeftArm  13.8035 20.1043 -85.2358
LeftForeArm  -32.992 -27.9591 17.5927
LeftHand  1.07655 7.55166 3.79298
RightShoulder  1.98785e-016 -4.96962e-017 1.55301e-017
RightArm  -1.41691 -52.3784 76.8347
RightForeArm  -12.236 10.9539 3.57875
RightHand  1.55051 -13.7968 -4.13891
LeftUpLeg  6.08595 -5.91566 11.5197
LeftLeg  48.1884 -14.5105 -3.87933
LeftFoot  24.4107 3.58552 -10.2505
LeftToes  1.17689e-009 -8.96121e-011 5.75302e-011
112
root  67.5144 37.577 2.8083 -143.797 78.2744 -138.496
RightUpLeg  -18.0734 -1.64454 13.1965
RightLeg  25.6172 1.16138 -4.39029
RightFoot  -4.57955 0.387207 -5.18587
RightToes  -7.56701e-010 -1.59028e-015 9.93923e-017
Spine  7.99568 -4.65186 2.27769
Spine1  7.8626 -6.49426 12.1704
HEad  -19.9215 -1.91787 1.95488
LeftShoulder1  9.93923e-017 0 1.22299e-017
LeftArm  8.7784 23.3992 -86.7685
LeftForeArm  -24.578 -19.9628 6.81567
LeftHand  1.09237 7.71688 1.64057
RightShoulder  1.98785e-016 -4.96962e-017 1.55301e-017
RightArm  2.02684 -45.8932 80.3739
RightForeArm  -16.3527 13.1723 1.4947
RightHand  1.65301 -13.8469 -5.57312
LeftUpLeg  0.476065 -6.8018 11.2584
LeftLeg  54.5287 -11.1539 0.712866
LeftFoot  25.2197 2.95396 -8.1494
LeftToes  1.17689e-009 -8.96121e-011 5.75302e-011
113
root  69.3187 37.9867 2.8428 -144.053 79.2223 -138.683
RightUpLeg  -13.9576 -0.579997 12.903
RightLeg  23.9236 0.781913 -4.13719
RightFoot  -6.15219 0.297355 -4.89298
RightToes  -7.56701e-010 -1.59028e-015 9.93923e-017
Spine  7.04072 -3.66739 2.70941
Spine1  7.99074 -5.16289 10.8374
HEad  -18.7099 -3.23606 2.38293
LeftShoulder1  9.93923e-017 0 1.22299e-017
LeftArm  -8.46948 27.3467 -85.953
LeftForeArm  -4.91005 -10.6453 -3.91574
LeftHand  1.20287 8.76368 -1.84059
RightShoulder  1.98785e-016 -4.96962e-017 1.55301e-017
RightArm  6.98837 -40.1003 83.2775
RightForeArm  -23.7323 16.2535 -3.28888
RightHand  1.77799 -13.8196 -7.4912
LeftUpLeg  -4.66046 -7.65577 9.87846
LeftLeg  57.9076 -9.54412 4.00809
LeftFoot  20.9001 1.52291 -4.71503
LeftToes  1.17689e-009 -8.96121e-011 5.75302e-011
